<mxfile host="65bd71144e" modified="2020-11-21T08:19:54.785Z" agent="5.0 (Windows NT 10.0; Win64; x64) AppleWebKit/537.36 (KHTML, like Gecko) Code/1.51.1 Chrome/83.0.4103.122 Electron/9.3.3 Safari/537.36" etag="TJgjnBxAKv1i_1-80PhX" version="13.6.5">
    <diagram name="Page-1" id="52a04d89-c75d-2922-d76d-85b35f80e030">
        <mxGraphModel dx="990" dy="585" grid="1" gridSize="10" guides="1" tooltips="1" connect="1" arrows="1" fold="1" page="1" pageScale="1" pageWidth="1100" pageHeight="850" background="#ffffff" math="0" shadow="0">
            <root>
                <mxCell id="0"/>
                <mxCell id="1" parent="0"/>
                <mxCell id="110" value="&amp;nbsp;Giao diện Achievement&lt;br&gt;: UI" style="shape=umlLifeline;perimeter=lifelinePerimeter;whiteSpace=wrap;html=1;container=1;collapsible=0;recursiveResize=0;outlineConnect=0;" parent="1" vertex="1">
                    <mxGeometry x="240" y="80" width="100" height="760" as="geometry"/>
                </mxCell>
                <mxCell id="165" value="" style="html=1;points=[];perimeter=orthogonalPerimeter;" parent="110" vertex="1">
                    <mxGeometry x="45" y="80" width="10" height="200" as="geometry"/>
                </mxCell>
                <mxCell id="172" value="" style="html=1;points=[];perimeter=orthogonalPerimeter;" parent="110" vertex="1">
                    <mxGeometry x="45" y="380" width="10" height="200" as="geometry"/>
                </mxCell>
                <mxCell id="227" value="" style="html=1;points=[];perimeter=orthogonalPerimeter;" parent="110" vertex="1">
                    <mxGeometry x="45" y="660" width="10" height="60" as="geometry"/>
                </mxCell>
                <mxCell id="112" value="Achievement : Achievement Controller" style="shape=umlLifeline;perimeter=lifelinePerimeter;whiteSpace=wrap;html=1;container=1;collapsible=0;recursiveResize=0;outlineConnect=0;" parent="1" vertex="1">
                    <mxGeometry x="480" y="80" width="100" height="760" as="geometry"/>
                </mxCell>
                <mxCell id="166" value="" style="html=1;points=[];perimeter=orthogonalPerimeter;" parent="112" vertex="1">
                    <mxGeometry x="45" y="120" width="10" height="120" as="geometry"/>
                </mxCell>
                <mxCell id="173" value="" style="html=1;points=[];perimeter=orthogonalPerimeter;" parent="112" vertex="1">
                    <mxGeometry x="45" y="420" width="10" height="120" as="geometry"/>
                </mxCell>
                <mxCell id="222" value="" style="html=1;points=[];perimeter=orthogonalPerimeter;" parent="112" vertex="1">
                    <mxGeometry x="45" y="620" width="10" height="40" as="geometry"/>
                </mxCell>
                <mxCell id="113" value="Database" style="shape=umlLifeline;perimeter=lifelinePerimeter;whiteSpace=wrap;html=1;container=1;collapsible=0;recursiveResize=0;outlineConnect=0;" parent="1" vertex="1">
                    <mxGeometry x="720" y="80" width="100" height="760" as="geometry"/>
                </mxCell>
                <mxCell id="167" value="" style="html=1;points=[];perimeter=orthogonalPerimeter;" parent="113" vertex="1">
                    <mxGeometry x="45" y="160" width="10" height="40" as="geometry"/>
                </mxCell>
                <mxCell id="174" value="" style="html=1;points=[];perimeter=orthogonalPerimeter;" parent="113" vertex="1">
                    <mxGeometry x="45" y="460" width="10" height="40" as="geometry"/>
                </mxCell>
                <mxCell id="233" value="" style="html=1;points=[];perimeter=orthogonalPerimeter;" parent="113" vertex="1">
                    <mxGeometry x="45" y="620" width="10" height="40" as="geometry"/>
                </mxCell>
                <mxCell id="139" style="edgeStyle=none;rounded=0;orthogonalLoop=1;jettySize=auto;html=1;" parent="1" edge="1">
                    <mxGeometry relative="1" as="geometry">
                        <mxPoint x="100" y="460" as="sourcePoint"/>
                        <mxPoint x="289.5" y="460" as="targetPoint"/>
                    </mxGeometry>
                </mxCell>
                <mxCell id="119" value="" style="html=1;verticalAlign=bottom;endArrow=block;" parent="1" edge="1">
                    <mxGeometry width="80" relative="1" as="geometry">
                        <mxPoint x="100" y="160" as="sourcePoint"/>
                        <mxPoint x="285" y="160" as="targetPoint"/>
                        <Array as="points">
                            <mxPoint x="250" y="160"/>
                        </Array>
                    </mxGeometry>
                </mxCell>
                <mxCell id="121" value="1 : Nhấn vào nút &quot;Share&quot;" style="text;html=1;align=center;verticalAlign=middle;resizable=0;points=[];autosize=1;" parent="1" vertex="1">
                    <mxGeometry x="115" y="140" width="150" height="20" as="geometry"/>
                </mxCell>
                <mxCell id="122" value="" style="html=1;verticalAlign=bottom;endArrow=block;" parent="1" edge="1">
                    <mxGeometry width="80" relative="1" as="geometry">
                        <mxPoint x="295" y="200" as="sourcePoint"/>
                        <mxPoint x="525" y="200" as="targetPoint"/>
                    </mxGeometry>
                </mxCell>
                <mxCell id="123" value="1.1 : Lấy thông tin" style="text;html=1;align=center;verticalAlign=middle;resizable=0;points=[];autosize=1;" parent="1" vertex="1">
                    <mxGeometry x="350" y="180" width="110" height="20" as="geometry"/>
                </mxCell>
                <mxCell id="124" value="" style="html=1;verticalAlign=bottom;endArrow=block;entryX=-0.22;entryY=0.171;entryDx=0;entryDy=0;entryPerimeter=0;exitX=1.06;exitY=0.337;exitDx=0;exitDy=0;exitPerimeter=0;" parent="1" source="166" edge="1">
                    <mxGeometry width="80" relative="1" as="geometry">
                        <mxPoint x="540" y="241" as="sourcePoint"/>
                        <mxPoint x="762.8" y="240.63" as="targetPoint"/>
                    </mxGeometry>
                </mxCell>
                <mxCell id="125" value="1.2 : Yêu cầu thông tin" style="text;html=1;align=center;verticalAlign=middle;resizable=0;points=[];autosize=1;" parent="1" vertex="1">
                    <mxGeometry x="575" y="220" width="140" height="20" as="geometry"/>
                </mxCell>
                <mxCell id="140" value="2 : Nhấn vào &quot;View Achievement&quot;" style="text;html=1;align=center;verticalAlign=middle;resizable=0;points=[];autosize=1;" parent="1" vertex="1">
                    <mxGeometry x="100" y="440" width="190" height="20" as="geometry"/>
                </mxCell>
                <mxCell id="142" style="edgeStyle=none;rounded=0;orthogonalLoop=1;jettySize=auto;html=1;entryX=0.5;entryY=0;entryDx=0;entryDy=0;entryPerimeter=0;" parent="1" target="173" edge="1">
                    <mxGeometry relative="1" as="geometry">
                        <mxPoint x="296" y="500" as="sourcePoint"/>
                        <mxPoint x="521" y="500" as="targetPoint"/>
                    </mxGeometry>
                </mxCell>
                <mxCell id="143" value="2.1 : Truy xuất danh sách &quot;Achievement&quot;" style="text;html=1;align=center;verticalAlign=middle;resizable=0;points=[];autosize=1;" parent="1" vertex="1">
                    <mxGeometry x="295" y="480" width="230" height="20" as="geometry"/>
                </mxCell>
                <mxCell id="147" style="edgeStyle=none;rounded=0;orthogonalLoop=1;jettySize=auto;html=1;entryX=-0.22;entryY=0.611;entryDx=0;entryDy=0;entryPerimeter=0;" parent="1" source="173" edge="1">
                    <mxGeometry relative="1" as="geometry">
                        <mxPoint x="537.8" y="540" as="sourcePoint"/>
                        <mxPoint x="765" y="540" as="targetPoint"/>
                    </mxGeometry>
                </mxCell>
                <mxCell id="148" value="2.2 : Yêu cầu danh sách" style="text;html=1;align=center;verticalAlign=middle;resizable=0;points=[];autosize=1;" parent="1" vertex="1">
                    <mxGeometry x="575" y="520" width="150" height="20" as="geometry"/>
                </mxCell>
                <mxCell id="164" value="User" style="shape=umlLifeline;participant=umlActor;perimeter=lifelinePerimeter;whiteSpace=wrap;html=1;container=1;collapsible=0;recursiveResize=0;verticalAlign=top;spacingTop=36;outlineConnect=0;" parent="1" vertex="1">
                    <mxGeometry x="90" y="80" width="20" height="760" as="geometry"/>
                </mxCell>
                <mxCell id="162" value="" style="html=1;points=[];perimeter=orthogonalPerimeter;" parent="164" vertex="1">
                    <mxGeometry x="5" y="80" width="10" height="640" as="geometry"/>
                </mxCell>
                <mxCell id="195" value="" style="html=1;verticalAlign=bottom;endArrow=open;dashed=1;endSize=8;exitX=0.34;exitY=0.997;exitDx=0;exitDy=0;exitPerimeter=0;" parent="1" source="166" edge="1">
                    <mxGeometry relative="1" as="geometry">
                        <mxPoint x="477" y="320" as="sourcePoint"/>
                        <mxPoint x="295" y="320" as="targetPoint"/>
                        <Array as="points"/>
                    </mxGeometry>
                </mxCell>
                <mxCell id="205" value="" style="html=1;verticalAlign=bottom;endArrow=open;dashed=1;endSize=8;" parent="1" source="112" target="172" edge="1">
                    <mxGeometry relative="1" as="geometry">
                        <mxPoint x="480" y="620" as="sourcePoint"/>
                        <mxPoint x="298" y="620" as="targetPoint"/>
                        <Array as="points">
                            <mxPoint x="380" y="620"/>
                        </Array>
                    </mxGeometry>
                </mxCell>
                <mxCell id="209" value="" style="html=1;verticalAlign=bottom;endArrow=open;dashed=1;endSize=8;" parent="1" source="113" edge="1">
                    <mxGeometry relative="1" as="geometry">
                        <mxPoint x="720" y="280" as="sourcePoint"/>
                        <mxPoint x="538" y="280" as="targetPoint"/>
                        <Array as="points"/>
                    </mxGeometry>
                </mxCell>
                <mxCell id="210" value="1.3 : Thông tin trả về" style="text;html=1;align=center;verticalAlign=middle;resizable=0;points=[];autosize=1;" parent="1" vertex="1">
                    <mxGeometry x="580" y="260" width="130" height="20" as="geometry"/>
                </mxCell>
                <mxCell id="211" value="&lt;span style=&quot;color: rgb(0 , 0 , 0) ; font-family: &amp;#34;helvetica&amp;#34; ; font-size: 12px ; font-style: normal ; font-weight: 400 ; letter-spacing: normal ; text-align: center ; text-indent: 0px ; text-transform: none ; word-spacing: 0px ; background-color: rgb(248 , 249 , 250) ; display: inline ; float: none&quot;&gt;1.4 : Thông báo Share thành công&lt;/span&gt;" style="text;whiteSpace=wrap;html=1;" parent="1" vertex="1">
                    <mxGeometry x="325" y="290" width="190" height="30" as="geometry"/>
                </mxCell>
                <mxCell id="212" value="" style="html=1;verticalAlign=bottom;endArrow=open;dashed=1;endSize=8;" parent="1" edge="1">
                    <mxGeometry relative="1" as="geometry">
                        <mxPoint x="287" y="360" as="sourcePoint"/>
                        <mxPoint x="105" y="360" as="targetPoint"/>
                        <Array as="points"/>
                    </mxGeometry>
                </mxCell>
                <mxCell id="213" value="&lt;span style=&quot;color: rgb(0 , 0 , 0) ; font-family: &amp;#34;helvetica&amp;#34; ; font-size: 12px ; font-style: normal ; font-weight: 400 ; letter-spacing: normal ; text-align: center ; text-indent: 0px ; text-transform: none ; word-spacing: 0px ; background-color: rgb(248 , 249 , 250) ; display: inline ; float: none&quot;&gt;1.5 : Thông báo thành công&lt;/span&gt;" style="text;whiteSpace=wrap;html=1;" parent="1" vertex="1">
                    <mxGeometry x="120" y="330" width="150" height="30" as="geometry"/>
                </mxCell>
                <mxCell id="216" value="" style="html=1;verticalAlign=bottom;endArrow=open;dashed=1;endSize=8;entryX=0.98;entryY=0.677;entryDx=0;entryDy=0;entryPerimeter=0;" parent="1" target="173" edge="1">
                    <mxGeometry relative="1" as="geometry">
                        <mxPoint x="770.75" y="580" as="sourcePoint"/>
                        <mxPoint x="539.25" y="580" as="targetPoint"/>
                        <Array as="points"/>
                    </mxGeometry>
                </mxCell>
                <mxCell id="217" value="2.3 : Danh sách trả về" style="text;html=1;align=center;verticalAlign=middle;resizable=0;points=[];autosize=1;" parent="1" vertex="1">
                    <mxGeometry x="585" y="560" width="130" height="20" as="geometry"/>
                </mxCell>
                <mxCell id="218" value="&lt;span style=&quot;font-family: &amp;#34;helvetica&amp;#34;&quot;&gt;2.4 : Danh sách cần xem&lt;/span&gt;" style="text;html=1;align=center;verticalAlign=middle;resizable=0;points=[];autosize=1;" parent="1" vertex="1">
                    <mxGeometry x="330" y="600" width="150" height="20" as="geometry"/>
                </mxCell>
                <mxCell id="219" value="&lt;span style=&quot;color: rgb(0 , 0 , 0) ; font-family: &amp;#34;helvetica&amp;#34; ; font-size: 12px ; font-style: normal ; font-weight: 400 ; letter-spacing: normal ; text-align: center ; text-indent: 0px ; text-transform: none ; word-spacing: 0px ; background-color: rgb(248 , 249 , 250) ; display: inline ; float: none&quot;&gt;2.5 : Hiển thị danh sách&lt;/span&gt;" style="text;whiteSpace=wrap;html=1;" parent="1" vertex="1">
                    <mxGeometry x="130" y="640" width="180" height="30" as="geometry"/>
                </mxCell>
                <mxCell id="220" value="" style="html=1;verticalAlign=bottom;endArrow=open;dashed=1;endSize=8;" parent="1" source="110" target="162" edge="1">
                    <mxGeometry relative="1" as="geometry">
                        <mxPoint x="290" y="661" as="sourcePoint"/>
                        <mxPoint x="110" y="660" as="targetPoint"/>
                        <Array as="points">
                            <mxPoint x="200" y="660"/>
                        </Array>
                    </mxGeometry>
                </mxCell>
                <mxCell id="225" style="edgeStyle=none;rounded=0;orthogonalLoop=1;jettySize=auto;html=1;" parent="1" source="222" target="113" edge="1">
                    <mxGeometry relative="1" as="geometry">
                        <Array as="points">
                            <mxPoint x="680" y="700"/>
                        </Array>
                    </mxGeometry>
                </mxCell>
                <mxCell id="226" value="3 : Lưu &quot;Achievement&quot; và &quot;Point&quot;" style="text;html=1;align=center;verticalAlign=middle;resizable=0;points=[];autosize=1;" parent="1" vertex="1">
                    <mxGeometry x="555" y="680" width="190" height="20" as="geometry"/>
                </mxCell>
                <mxCell id="229" value="3.1: &quot;Point&quot; mới" style="text;html=1;align=center;verticalAlign=middle;resizable=0;points=[];autosize=1;" parent="1" vertex="1">
                    <mxGeometry x="350" y="720" width="100" height="20" as="geometry"/>
                </mxCell>
                <mxCell id="231" value="3.2 : Hiển thị &quot;Point&quot; mới" style="text;html=1;align=center;verticalAlign=middle;resizable=0;points=[];autosize=1;" parent="1" vertex="1">
                    <mxGeometry x="115" y="780" width="150" height="20" as="geometry"/>
                </mxCell>
                <mxCell id="235" value="" style="html=1;verticalAlign=bottom;endArrow=open;dashed=1;endSize=8;entryX=1.26;entryY=0.782;entryDx=0;entryDy=0;entryPerimeter=0;" parent="1" edge="1">
                    <mxGeometry relative="1" as="geometry">
                        <mxPoint x="280.95" y="800" as="sourcePoint"/>
                        <mxPoint x="99.04999999999988" y="800.48" as="targetPoint"/>
                        <Array as="points">
                            <mxPoint x="191.45" y="800"/>
                        </Array>
                    </mxGeometry>
                </mxCell>
                <mxCell id="236" value="" style="html=1;verticalAlign=bottom;endArrow=open;dashed=1;endSize=8;" parent="1" target="110" edge="1">
                    <mxGeometry relative="1" as="geometry">
                        <mxPoint x="531.9" y="740" as="sourcePoint"/>
                        <mxPoint x="349.9999999999999" y="740.48" as="targetPoint"/>
                        <Array as="points">
                            <mxPoint x="442.4" y="740"/>
                        </Array>
                    </mxGeometry>
                </mxCell>
            </root>
        </mxGraphModel>
    </diagram>
</mxfile>